<?xml version="1.0" encoding="UTF-8" standalone="no"?>
<!-- Created with Inkscape (http://www.inkscape.org/) -->

<svg
   width="480"
   height="128"
   viewBox="0 0 127 33.866666"
   version="1.1"
   id="svg1"
   inkscape:version="1.4 (86a8ad7, 2024-10-11)"
   sodipodi:docname="banner-light.svg"
   inkscape:export-filename="public\assets\logo\banner-light.png"
   inkscape:export-xdpi="36"
   inkscape:export-ydpi="36"
   xmlns:inkscape="http://www.inkscape.org/namespaces/inkscape"
   xmlns:sodipodi="http://sodipodi.sourceforge.net/DTD/sodipodi-0.dtd"
   xmlns="http://www.w3.org/2000/svg"
   xmlns:svg="http://www.w3.org/2000/svg">
  <sodipodi:namedview
     id="namedview1"
     pagecolor="#ffffff"
     bordercolor="#000000"
     borderopacity="0.25"
     inkscape:showpageshadow="2"
     inkscape:pageopacity="0.0"
     inkscape:pagecheckerboard="0"
     inkscape:deskcolor="#d1d1d1"
     inkscape:document-units="px"
     showgrid="true"
     inkscape:zoom="0.97386895"
     inkscape:cx="45.694033"
     inkscape:cy="147.35042"
     inkscape:window-width="1920"
     inkscape:window-height="991"
     inkscape:window-x="-9"
     inkscape:window-y="-9"
     inkscape:window-maximized="1"
     inkscape:current-layer="layer1">
    <inkscape:grid
       id="grid1"
       units="px"
       originx="0"
       originy="0"
       spacingx="2.1166666"
       spacingy="2.1166666"
       empcolor="#0099e5"
       empopacity="0.30196078"
       color="#0099e5"
       opacity="0.14901961"
       empspacing="4"
       enabled="true"
       visible="true" />
  </sodipodi:namedview>
  <defs
     id="defs1" />
  <g
     inkscape:label="Réteg 1"
     inkscape:groupmode="layer"
     id="layer1">
    <path
       style="fill:#ff0000;stroke-width:5.38606"
       id="path1"
       sodipodi:type="arc"
       sodipodi:cx="16.933332"
       sodipodi:cy="0"
       sodipodi:rx="16.933332"
       sodipodi:ry="16.933331"
       sodipodi:start="0"
       sodipodi:end="1.5707963"
       sodipodi:arc-type="slice"
       d="M 33.866665,0 A 16.933332,16.933331 0 0 1 16.933332,16.933331 V 0 Z" />
    <rect
       style="fill:#00ff00;stroke-width:2.9922"
       id="rect1"
       width="16.919447"
       height="16.933332"
       x="0"
       y="16.933332" />
    <path
       style="fill:#ffff00;stroke-width:5.38606"
       id="path2"
       sodipodi:type="arc"
       sodipodi:cx="-16.933332"
       sodipodi:cy="-16.933332"
       sodipodi:rx="16.933332"
       sodipodi:ry="16.933331"
       sodipodi:start="0"
       sodipodi:end="1.5707963"
       sodipodi:arc-type="slice"
       d="M 0,-16.933332 A 16.933332,16.933331 0 0 1 -16.933332,-1.9073486e-6 V -16.933332 Z"
       transform="scale(-1)" />
    <rect
       style="fill:#0000ff;stroke-width:2.11841"
       id="rect3"
       width="8.4805517"
       height="16.933332"
       x="16.919447"
       y="16.933332" />
    <rect
       style="fill:#ff00ff;stroke-width:2.11841"
       id="rect4"
       width="8.4805517"
       height="16.933332"
       x="25.386114"
       y="16.933332" />
    <path
       d="M 54.534739,33.443039 V 20.514736 L 42.190005,3.2290816e-5 h 6.823271 L 55.050973,10.302274 q 0.852909,1.458923 1.638483,2.917846 0.808019,1.436478 1.616038,2.895401 h -1.593593 q 0.763129,-1.458923 1.548703,-2.895401 0.808019,-1.458923 1.638483,-2.917846 L 65.802114,3.2290816e-5 H 72.60294 L 60.370431,20.514736 v 12.928303 z m 27.49509,0.471344 q -2.468947,0 -4.376769,-1.054913 Q 75.745237,31.782111 74.667878,29.694729 73.59052,27.584902 73.59052,24.55483 V 9.7411497 h 5.656132 V 23.657032 q 0,2.603616 1.256919,3.950315 1.279363,1.346698 3.52386,1.346698 1.503813,0 2.670952,-0.606014 1.167138,-0.606015 1.840487,-1.885378 0.67335,-1.301808 0.67335,-3.321856 V 9.7411497 h 5.678577 V 33.443039 h -5.566353 v -6.037697 h 1.099804 q -1.144694,3.164741 -3.232076,4.848113 -2.064937,1.660928 -5.162343,1.660928 z m 28.348001,0.06733 q -3.54631,0 -6.14992,-1.593593 -2.60362,-1.593593 -4.01765,-4.376769 -1.39159,-2.805621 -1.39159,-6.396817 0,-3.61364 1.43648,-6.419261 1.45892,-2.805622 4.01765,-4.399215 2.55872,-1.5935926 5.88058,-1.5935926 2.55873,0 4.64611,0.8977986 2.08738,0.897799 3.59119,2.558727 1.50382,1.638483 2.31184,3.905425 0.80802,2.244497 0.80802,4.960338 v 1.548703 h -20.44737 v -3.905425 h 17.6193 l -2.53628,1.054914 q 0,-2.020047 -0.74069,-3.47897 -0.71824,-1.458924 -2.04249,-2.244498 -1.30181,-0.808018 -3.11985,-0.808018 -1.7956,0 -3.11985,0.808018 -1.32425,0.785574 -2.04249,2.244498 -0.71824,1.458923 -0.71824,3.47897 v 2.446502 q 0,2.042492 0.71824,3.591195 0.71824,1.548703 2.08738,2.401612 1.39159,0.852909 3.3443,0.852909 1.41403,0 2.51384,-0.426454 1.0998,-0.426455 1.84048,-1.189584 0.74069,-0.763129 1.05492,-1.773153 h 5.29701 q -0.4489,2.311832 -1.97516,4.084985 -1.50381,1.773153 -3.7932,2.783177 -2.28938,0.987578 -5.07256,0.987578 z"
       id="text1"
       style="font-weight:600;font-size:45.9673px;font-family:Inter;-inkscape-font-specification:'Inter Semi-Bold';fill:#1c1c1c;stroke-width:30.6449"
       transform="scale(1.0033972,0.99661431)"
       aria-label="Yue" />
  </g>
</svg>
